                                                                        S      1
,,,4Hdock,22HAutodesk Inventor 2018,7Hunknown,32,38,7,99,15,,1.,2,2HMM, G      1
1,0.08,15H20170605.160839,0.01,10000.,12HAYUSH SHUKLA,,11,0,15H20170605.G      2
103120;                                                                 G      3
     186       1                                                00000000D      1
     186            -119       1       0                               0D      2
     514       2                                                00010000D      3
     514                       1       1                               0D      4
     510       3                                                00010000D      5
     510            -121       1       1                               0D      6
     510       4                                                00010000D      7
     510            -121       1       1                               0D      8
     510       5                                                00010000D      9
     510            -121       1       1                               0D     10
     510       6                                                00010000D     11
     510            -121       1       1                               0D     12
     510       7                                                00010000D     13
     510            -121       1       1                               0D     14
     510       8                                                00010000D     15
     510            -121       1       1                               0D     16
     510       9                                                00010000D     17
     510            -121       1       1                               0D     18
     510      10                                                00010000D     19
     510            -121       1       1                               0D     20
     510      11                                                00010000D     21
     510            -121       1       1                               0D     22
     510      12                                                00010000D     23
     510            -121       1       1                               0D     24
     508      13                                                00010000D     25
     508                       1       1                               0D     26
     508      14                                                00010000D     27
     508                       1       1                               0D     28
     508      15                                                00010000D     29
     508                       1       1                               0D     30
     508      16                                                00010000D     31
     508                       1       1                               0D     32
     508      17                                                00010000D     33
     508                       1       1                               0D     34
     508      18                                                00010000D     35
     508                       1       1                               0D     36
     508      19                                                00010000D     37
     508                       1       1                               0D     38
     508      20                                                00010000D     39
     508                       1       1                               0D     40
     508      21                                                00010000D     41
     508                       2       1                               0D     42
     508      23                                                00010000D     43
     508                       2       1                               0D     44
     126      25                                                00010000D     45
     126       0               3       0                               0D     46
     126      28                                                00010000D     47
     126       0               3       0                               0D     48
     126      31                                                00010000D     49
     126       0               3       0                               0D     50
     126      34                                                00010000D     51
     126       0               3       0                               0D     52
     126      37                                                00010000D     53
     126       0               3       0                               0D     54
     126      40                                                00010000D     55
     126       0               3       0                               0D     56
     126      43                                                00010000D     57
     126       0               3       0                               0D     58
     126      46                                                00010000D     59
     126       0               3       0                               0D     60
     126      49                                                00010000D     61
     126       0               3       0                               0D     62
     126      52                                                00010000D     63
     126       0               3       0                               0D     64
     126      55                                                00010000D     65
     126       0               3       0                               0D     66
     126      58                                                00010000D     67
     126       0               3       0                               0D     68
     126      61                                                00010000D     69
     126       0               3       0                               0D     70
     126      64                                                00010000D     71
     126       0               3       0                               0D     72
     126      67                                                00010000D     73
     126       0               3       0                               0D     74
     126      70                                                00010000D     75
     126       0               3       0                               0D     76
     126      73                                                00010000D     77
     126       0               3       0                               0D     78
     126      76                                                00010000D     79
     126       0               3       0                               0D     80
     126      79                                                00010000D     81
     126       0               3       0                               0D     82
     126      82                                                00010000D     83
     126       0               3       0                               0D     84
     126      85                                                00010000D     85
     126       0               3       0                               0D     86
     126      88                                                00010000D     87
     126       0               3       0                               0D     88
     126      91                                                00010000D     89
     126       0               3       0                               0D     90
     126      94                                                00010000D     91
     126       0               3       0                               0D     92
     128      97                                                00010000D     93
     128       0    -121       5       0                               0D     94
     128     102                                                00010000D     95
     128       0    -121       5       0                               0D     96
     128     107                                                00010000D     97
     128       0    -121       5       0                               0D     98
     128     112                                                00010000D     99
     128       0    -121       6       0                               0D    100
     128     118                                                00010000D    101
     128       0    -121       5       0                               0D    102
     128     123                                                00010000D    103
     128       0    -121       5       0                               0D    104
     128     128                                                00010000D    105
     128       0    -121       5       0                               0D    106
     128     133                                                00010000D    107
     128       0    -121       5       0                               0D    108
     128     138                                                00010000D    109
     128       0    -121       7       0                               0D    110
     128     145                                                00010000D    111
     128       0    -121       7       0                               0D    112
     502     152                                                00010000D    113
     502                      11       1                               0D    114
     504     163                                                00010001D    115
     504                       7       1                               0D    116
     406     170                                                00000000D    117
     406                       1      15                               0D    118
     314     171                                                00000200D    119
     314                       1       0                               0D    120
     314     172                                                00000200D    121
     314                       1       0                               0D    122
186,3,1,0,0,1,117;                                                     1P      1
514,10,5,1,7,1,9,1,11,1,13,1,15,1,17,1,19,1,21,1,23,1;                 3P      2
510,93,1,1,25;                                                         5P      3
510,95,1,1,27;                                                         7P      4
510,97,1,1,29;                                                         9P      5
510,99,1,1,31;                                                        11P      6
510,101,1,1,33;                                                       13P      7
510,103,1,1,35;                                                       15P      8
510,105,1,1,37;                                                       17P      9
510,107,1,1,39;                                                       19P     10
510,109,1,1,41;                                                       21P     11
510,111,1,1,43;                                                       23P     12
508,4,0,115,1,1,0,0,115,2,1,0,0,115,3,0,0,0,115,4,0,0;                25P     13
508,4,0,115,5,1,0,0,115,6,1,0,0,115,7,0,0,0,115,8,0,0;                27P     14
508,4,0,115,9,1,0,0,115,4,1,0,0,115,10,0,0,0,115,11,0,0;              29P     15
508,4,0,115,12,1,0,0,115,11,1,0,0,115,13,0,0,0,115,14,0,0;            31P     16
508,4,0,115,15,1,0,0,115,14,1,0,0,115,16,0,0,0,115,6,0,0;             33P     17
508,4,0,115,17,1,0,0,115,8,1,0,0,115,18,0,0,0,115,19,0,0;             35P     18
508,4,0,115,20,1,0,0,115,19,1,0,0,115,21,0,0,0,115,22,0,0;            37P     19
508,4,0,115,23,1,0,0,115,22,1,0,0,115,24,0,0,0,115,2,0,0;             39P     20
508,8,0,115,24,1,0,0,115,21,1,0,0,115,18,1,0,0,115,7,1,0,0,115,       41P     21
16,1,0,0,115,13,1,0,0,115,10,1,0,0,115,3,1,0;                         41P     22
508,8,0,115,23,0,0,0,115,1,0,0,0,115,9,0,0,0,115,12,0,0,0,115,        43P     23
15,0,0,0,115,5,0,0,0,115,17,0,0,0,115,20,0,0;                         43P     24
126,1,1,0,0,1,0,0.,0.,40.,40.,1.,1.,0.,156.066017177982,              45P     25
-46.0660171779821,0.,-243.933982822018,-46.0660171779821,0.,40.,      45P     26
0.,0.,0.;                                                             45P     27
126,1,1,0,0,1,0,0.,0.,15.,15.,1.,1.,0.,-243.933982822018,             47P     28
-46.0660171779821,150.,-243.933982822018,-46.0660171779821,0.,        47P     29
15.,0.,0.,0.;                                                         47P     30
126,1,1,0,0,1,0,0.,0.,40.,40.,1.,1.,150.,156.066017177982,            49P     31
-46.0660171779821,150.,-243.933982822018,-46.0660171779821,0.,        49P     32
40.,0.,0.,0.;                                                         49P     33
126,1,1,0,0,1,0,0.,0.,15.,15.,1.,1.,0.,156.066017177982,              51P     34
-46.0660171779821,150.,156.066017177982,-46.0660171779821,0.,         51P     35
15.,0.,0.,0.;                                                         51P     36
126,1,1,0,0,1,0,0.,0.,40.,40.,1.,1.,0.,-243.933982822018,             53P     37
-166.066017177982,0.,156.066017177982,-166.066017177982,0.,40.,       53P     38
0.,0.,0.;                                                             53P     39
126,1,1,0,0,1,0,0.,0.,15.,15.,1.,1.,0.,156.066017177982,              55P     40
-166.066017177982,150.,156.066017177982,-166.066017177982,0.,         55P     41
15.,0.,0.,0.;                                                         55P     42
126,1,1,0,0,1,0,0.,0.,40.,40.,1.,1.,150.,-243.933982822018,           57P     43
-166.066017177982,150.,156.066017177982,-166.066017177982,0.,         57P     44
40.,0.,0.,0.;                                                         57P     45
126,1,1,0,0,1,0,0.,0.,15.,15.,1.,1.,0.,-243.933982822018,             59P     46
-166.066017177982,150.,-243.933982822018,-166.066017177982,0.,        59P     47
15.,0.,0.,0.;                                                         59P     48
126,1,1,0,0,1,0,0.,0.,30.,30.,1.,1.,0.,368.198051533946,              61P     49
166.066017177982,0.,156.066017177982,-46.0660171779821,0.,30.,        61P     50
0.,0.,0.;                                                             61P     51
126,1,1,0,0,1,0,0.,0.,30.,30.,1.,1.,150.,368.198051533946,            63P     52
166.066017177982,150.,156.066017177982,-46.0660171779821,0.,30.,      63P     53
0.,0.,0.;                                                             63P     54
126,1,1,0,0,1,0,0.,0.,15.,15.,1.,1.,0.,368.198051533946,              65P     55
166.066017177982,150.,368.198051533946,166.066017177982,0.,15.,       65P     56
0.,0.,0.;                                                             65P     57
126,1,1,0,0,1,0,0.,0.,12.,12.,1.,1.,0.,368.198051533946,              67P     58
46.0660171779822,0.,368.198051533946,166.066017177982,0.,12.,0.,      67P     59
0.,0.;                                                                67P     60
126,1,1,0,0,1,0,0.,0.,12.,12.,1.,1.,150.,368.198051533946,            69P     61
46.0660171779822,150.,368.198051533946,166.066017177982,0.,12.,       69P     62
0.,0.,0.;                                                             69P     63
126,1,1,0,0,1,0,0.,0.,15.,15.,1.,1.,0.,368.198051533946,              71P     64
46.0660171779822,150.,368.198051533946,46.0660171779822,0.,15.,       71P     65
0.,0.,0.;                                                             71P     66
126,1,1,0,0,1,0,0.,0.,30.,30.,1.,1.,0.,156.066017177982,              73P     67
-166.066017177982,0.,368.198051533946,46.0660171779821,0.,30.,        73P     68
0.,0.,0.;                                                             73P     69
126,1,1,0,0,1,0,0.,0.,30.,30.,1.,1.,150.,156.066017177982,            75P     70
-166.066017177982,150.,368.198051533946,46.0660171779821,0.,30.,      75P     71
0.,0.,0.;                                                             75P     72
126,1,1,0,0,1,0,0.,0.,30.,30.,1.,1.,0.,-456.066017177982,             77P     73
46.0660171779822,0.,-243.933982822018,-166.066017177982,0.,30.,       77P     74
0.,0.,0.;                                                             77P     75
126,1,1,0,0,1,0,0.,0.,30.,30.,1.,1.,150.,-456.066017177982,           79P     76
46.0660171779822,150.,-243.933982822018,-166.066017177982,0.,         79P     77
30.,0.,0.,0.;                                                         79P     78
126,1,1,0,0,1,0,0.,0.,15.,15.,1.,1.,0.,-456.066017177982,             81P     79
46.0660171779822,150.,-456.066017177982,46.0660171779822,0.,15.,      81P     80
0.,0.,0.;                                                             81P     81
126,1,1,0,0,1,0,0.,0.,12.,12.,1.,1.,0.,-456.066017177982,             83P     82
166.066017177982,0.,-456.066017177982,46.0660171779822,0.,12.,        83P     83
0.,0.,0.;                                                             83P     84
126,1,1,0,0,1,0,0.,0.,12.,12.,1.,1.,150.,-456.066017177982,           85P     85
166.066017177982,150.,-456.066017177982,46.0660171779822,0.,12.,      85P     86
0.,0.,0.;                                                             85P     87
126,1,1,0,0,1,0,0.,0.,15.,15.,1.,1.,0.,-456.066017177982,             87P     88
166.066017177982,150.,-456.066017177982,166.066017177982,0.,15.,      87P     89
0.,0.,0.;                                                             87P     90
126,1,1,0,0,1,0,0.,0.,30.,30.,1.,1.,0.,-243.933982822018,             89P     91
-46.0660171779821,0.,-456.066017177982,166.066017177982,0.,30.,       89P     92
0.,0.,0.;                                                             89P     93
126,1,1,0,0,1,0,0.,0.,30.,30.,1.,1.,150.,-243.933982822018,           91P     94
-46.0660171779821,150.,-456.066017177982,166.066017177982,0.,         91P     95
30.,0.,0.,0.;                                                         91P     96
128,1,1,1,1,0,0,1,0,0,-0.001,-0.001,40.001,40.001,-0.001,-0.001,      93P     97
15.001,15.001,1.,1.,1.,1.,-0.01,156.076017177982,                     93P     98
-46.0660171779821,-0.01,-243.943982822018,-46.0660171779821,          93P     99
150.01,156.076017177982,-46.0660171779821,150.01,                     93P    100
-243.943982822018,-46.0660171779821,-0.001,40.001,-0.001,15.001;      93P    101
128,1,1,1,1,0,0,1,0,0,-0.001,-0.001,40.001,40.001,-0.001,-0.001,      95P    102
15.001,15.001,1.,1.,1.,1.,-0.01,-243.943982822018,                    95P    103
-166.066017177982,-0.01,156.076017177982,-166.066017177982,           95P    104
150.01,-243.943982822018,-166.066017177982,150.01,                    95P    105
156.076017177982,-166.066017177982,-0.001,40.001,-0.001,15.001;       95P    106
128,1,1,1,1,0,0,1,0,0,-0.001,-0.001,30.001,30.001,-0.001,-0.001,      97P    107
15.001,15.001,1.,1.,1.,1.,-0.01,368.205122601758,                     97P    108
166.073088245794,-0.01,156.05894611017,-46.073088245794,150.01,       97P    109
368.205122601758,166.073088245794,150.01,156.05894611017,             97P    110
-46.073088245794,-0.001,30.001,-0.001,15.001;                         97P    111
128,1,1,1,1,0,0,1,0,0,-0.00100000000000089,-0.00100000000000089,      99P    112
12.001,12.001,-0.001,-0.001,15.001,15.001,1.,1.,1.,1.,-0.01,          99P    113
368.198051533946,46.0560171779822,-0.01,368.198051533946,             99P    114
166.076017177982,150.01,368.198051533946,46.0560171779822,            99P    115
150.01,368.198051533946,166.076017177982,-0.00100000000000089,        99P    116
12.001,-0.001,15.001;                                                 99P    117
128,1,1,1,1,0,0,1,0,0,-0.001,-0.001,30.001,30.001,-0.001,-0.001,     101P    118
15.001,15.001,1.,1.,1.,1.,-0.01,156.05894611017,                     101P    119
-166.073088245794,-0.01,368.205122601758,46.0730882457941,           101P    120
150.01,156.05894611017,-166.073088245794,150.01,                     101P    121
368.205122601758,46.0730882457941,-0.001,30.001,-0.001,15.001;       101P    122
128,1,1,1,1,0,0,1,0,0,-0.001,-0.001,30.001,30.001,-0.001,-0.001,     103P    123
15.001,15.001,1.,1.,1.,1.,-0.01,-456.073088245794,                   103P    124
46.073088245794,-0.01,-243.926911754206,-166.073088245794,           103P    125
150.01,-456.073088245794,46.073088245794,150.01,                     103P    126
-243.926911754206,-166.073088245794,-0.001,30.001,-0.001,15.001;     103P    127
128,1,1,1,1,0,0,1,0,0,-0.001,-0.001,12.001,12.001,-0.001,-0.001,     105P    128
15.001,15.001,1.,1.,1.,1.,-0.01,-456.066017177982,                   105P    129
166.076017177982,-0.01,-456.066017177982,46.0560171779822,           105P    130
150.01,-456.066017177982,166.076017177982,150.01,                    105P    131
-456.066017177982,46.0560171779822,-0.001,12.001,-0.001,15.001;      105P    132
128,1,1,1,1,0,0,1,0,0,-0.001,-0.001,30.001,30.001,-0.001,-0.001,     107P    133
15.001,15.001,1.,1.,1.,1.,-0.01,-243.926911754206,                   107P    134
-46.073088245794,-0.01,-456.073088245794,166.073088245794,           107P    135
150.01,-243.926911754206,-46.073088245794,150.01,                    107P    136
-456.073088245794,166.073088245794,-0.001,30.001,-0.001,15.001;      107P    137
128,1,1,1,1,0,0,1,0,0,-16.6076017177982,-16.6076017177982,           109P    138
16.6076017177982,16.6076017177982,-10.6076017177982,                 109P    139
-10.6076017177982,71.8208051533946,71.8208051533946,1.,1.,1.,1.,     109P    140
150.,-456.076017177982,166.076017177982,150.,-456.076017177982,      109P    141
-166.076017177982,150.,368.208051533946,166.076017177982,150.,       109P    142
368.208051533946,-166.076017177982,-16.6076017177982,                109P    143
16.6076017177982,-10.6076017177982,71.8208051533946;                 109P    144
128,1,1,1,1,0,0,1,0,0,-16.6076017177982,-16.6076017177982,           111P    145
16.6076017177982,16.6076017177982,-10.6076017177982,                 111P    146
-10.6076017177982,71.8208051533946,71.8208051533946,1.,1.,1.,1.,     111P    147
0.,-456.076017177982,-166.076017177982,0.,-456.076017177982,         111P    148
166.076017177982,0.,368.208051533946,-166.076017177982,0.,           111P    149
368.208051533946,166.076017177982,-16.6076017177982,                 111P    150
16.6076017177982,-10.6076017177982,71.8208051533946;                 111P    151
502,16,0.,156.066017177982,-46.0660171779821,0.,                     113P    152
-243.933982822018,-46.0660171779821,150.,-243.933982822018,          113P    153
-46.0660171779821,150.,156.066017177982,-46.0660171779821,0.,        113P    154
-243.933982822018,-166.066017177982,0.,156.066017177982,             113P    155
-166.066017177982,150.,156.066017177982,-166.066017177982,150.,      113P    156
-243.933982822018,-166.066017177982,0.,368.198051533946,             113P    157
166.066017177982,150.,368.198051533946,166.066017177982,0.,          113P    158
368.198051533946,46.0660171779822,150.,368.198051533946,             113P    159
46.0660171779822,0.,-456.066017177982,46.0660171779822,150.,         113P    160
-456.066017177982,46.0660171779822,0.,-456.066017177982,             113P    161
166.066017177982,150.,-456.066017177982,166.066017177982;            113P    162
504,24,45,113,1,113,2,47,113,2,113,3,49,113,4,113,3,51,113,1,        115P    163
113,4,53,113,5,113,6,55,113,6,113,7,57,113,8,113,7,59,113,5,113,     115P    164
8,61,113,9,113,1,63,113,10,113,4,65,113,9,113,10,67,113,11,113,      115P    165
9,69,113,12,113,10,71,113,11,113,12,73,113,6,113,11,75,113,7,        115P    166
113,12,77,113,13,113,5,79,113,14,113,8,81,113,13,113,14,83,113,      115P    167
15,113,13,85,113,16,113,14,87,113,15,113,16,89,113,2,113,15,91,      115P    168
113,3,113,16;                                                        115P    169
406,1,6HSolid1;                                                      117P    170
314,74.9019607843137,74.9019607843137,74.9019607843137,;             119P    171
314,0.,0.,0.,;                                                       121P    172
S      1G      3D    122P    172                                        T      1
